<?xml version="1.0" encoding="UTF-8" standalone="no"?>
<!DOCTYPE svg PUBLIC "-//W3C//DTD SVG 1.1//EN" "http://www.w3.org/Graphics/SVG/1.1/DTD/svg11.dtd">
<svg width="100%" height="100%" viewBox="0 0 100 70" version="1.1" xmlns="http://www.w3.org/2000/svg" xmlns:xlink="http://www.w3.org/1999/xlink" xml:space="preserve" xmlns:serif="http://www.serif.com/" style="fill-rule:evenodd;clip-rule:evenodd;stroke-linejoin:round;stroke-miterlimit:2;">
    <path d="M90,0L10,0C4.5,0 0,4.5 0,10L0,60C0,65.5 4.5,70 10,70L90,70C95.5,70 100,65.5 100,59.9L100,10C100,4.5 95.5,0 90,0ZM92.7,59.9C92.8,61.4 91.6,62.7 90,62.8L10,62.8C8.5,62.8 7.3,61.5 7.3,60L7.3,10C7.2,8.5 8.4,7.2 9.9,7.1L90,7.1C91.5,7.1 92.7,8.4 92.7,9.9L92.7,59.9Z" style="fill:rgb(240,20,20);fill-rule:nonzero;"/>
    <path d="M30.6,57.9L13.8,57.9L13.8,12.1L30.6,12.1C42.5,12.1 49,19.5 49,34.8C49,48 44.5,57.8 30.6,57.9ZM37.9,35.7C37.9,26.5 36.9,19.3 27,19.3L24.8,19.3L24.8,50.5L28.7,50.5C34.5,50.5 37.9,45.8 37.9,35.7ZM78,33.9C82.7,32.5 85.9,28.2 86,23.2C86,22.2 85.8,12 72.9,12L53.8,12L53.8,57.8L70,57.8C74.3,57.8 87.7,57.8 87.7,44.9C87.7,41.8 86.3,35.7 78,33.9ZM64.7,19.2L68.2,19.2C73.1,19.2 75.1,20.9 75.1,24.7C75.1,27.7 72.9,30.2 69.1,30.2L64.8,30.2L64.8,19.2L64.7,19.2ZM69.2,50.5L64.7,50.5L64.7,38.7L69.5,38.7C75.2,38.7 76.6,42 76.6,44.6C76.6,50.5 71,50.5 69.2,50.5Z" style="fill:rgb(240,20,20);fill-rule:nonzero;"/>
</svg>
