<svg version="1.1" id="Ebene_1" xmlns="http://www.w3.org/2000/svg" xmlns:xlink="http://www.w3.org/1999/xlink" x="0px" y="0px"
	 viewBox="0 0 331.95 66.86" style="enable-background:new 0 0 331.95 66.86;" xml:space="preserve">
<style type="text/css">
	.st0{fill:#EF7D00;}
	.st1{fill:#555352;}
</style>
<rect x="10" y="12.08" class="st0" width="10.9" height="44.96"/>
<g>
	<path class="st0" d="M58.84,36.92v-0.12c0-1.8-2.29-7.37-10.28-7.37c-8.61,0-10.4,6.56-10.4,7.37v0.12H58.84z M69.49,47.13
		C66.33,55,58.78,58.28,48.81,58.28c-13.13,0-21.92-5.32-21.92-17.83c0-12.51,8.79-17.84,21.92-17.84c14.37,0,21.3,7.25,21.3,19.75
		v0.99H38.16v0.12c0,3.16,3.22,7.99,10.65,7.99c4.4,0,7.49-1.49,9.04-4.33H69.49z"/>
	<path class="st1" d="M141.59,50.6c6.75,0,10.65-3.65,10.65-10.16c0-6.5-3.9-10.15-10.65-10.15c-6.75,0-10.65,3.65-10.65,10.15
		C130.94,46.95,134.84,50.6,141.59,50.6 M141.59,22.61c13.13,0,21.92,5.33,21.92,17.83c0,12.51-8.79,17.84-21.92,17.84
		c-13.13,0-21.92-5.33-21.92-17.84C119.67,27.94,128.47,22.61,141.59,22.61"/>
	<path class="st1" d="M181.77,31.16v25.89h-10.9V31.16h-6.87v-7.31h6.87v-1.26c0-8.92,2.73-10.59,12.88-10.59
		c1.49,0,4.21,0.06,6.87,0.12v6.81c-1.86-0.06-3.65-0.12-5.51-0.12c-1.92,0-3.34,0.31-3.34,3.41v1.63h13.83v-1.26
		c0-8.92,2.72-10.59,12.88-10.59c1.49,0,4.21,0.06,6.87,0.12v6.81c-1.86-0.06-3.65-0.12-5.51-0.12c-1.92,0-3.34,0.31-3.34,3.41v1.63
		h8.73v7.31h-8.73v25.89h-10.9V31.16H181.77z"/>
</g>
<rect x="220.1" y="12.08" class="st1" width="10.9" height="7.68"/>
<rect x="220.1" y="23.85" class="st1" width="10.9" height="33.19"/>
<g>
	<path class="st1" d="M266.6,36.11c-1.3-4.4-4.64-5.82-9.04-5.82c-6.75,0-10.65,3.65-10.65,10.15c0,6.5,3.9,10.16,10.65,10.16
		c4.83,0,8.48-2.6,9.04-6.75h11.27c-1.98,11.77-10.4,14.43-21.24,14.43c-12.51,0-20.99-5.33-20.99-17.84
		c0-12.51,8.79-17.83,21.92-17.83c8.42,0,18.27,2.54,20.31,13.5H266.6z"/>
	<path class="st1" d="M313.17,36.92v-0.12c0-1.8-2.29-7.37-10.28-7.37c-8.61,0-10.4,6.56-10.4,7.37v0.12H313.17z M323.83,47.13
		c-3.16,7.86-10.71,11.15-20.68,11.15c-13.13,0-21.92-5.32-21.92-17.83c0-12.51,8.79-17.84,21.92-17.84
		c14.37,0,21.3,7.25,21.3,19.75v0.99h-31.95v0.12c0,3.16,3.22,7.99,10.65,7.99c4.4,0,7.49-1.49,9.04-4.33H323.83z"/>
</g>
<polygon class="st1" points="94.83,48.8 103.15,57.11 119.88,57.11 103.15,40.48 "/>
<polygon class="st0" points="69.79,23.85 86.52,40.48 69.79,57.11 86.52,57.11 94.83,48.8 103.15,40.48 86.52,23.85 "/>
<polygon class="st1" points="103.15,40.48 119.88,23.85 103.15,23.85 94.83,32.17 "/>
</svg>
