<?xml version="1.0" encoding="utf-8"?>
<!-- Generator: Adobe Illustrator 19.2.1, SVG Export Plug-In . SVG Version: 6.00 Build 0)  -->
<svg version="1.1" id="Ebene_1" xmlns="http://www.w3.org/2000/svg" xmlns:xlink="http://www.w3.org/1999/xlink" x="0px" y="0px"
	 viewBox="0 0 113.39 42.52" style="enable-background:new 0 0 113.39 42.52;" xml:space="preserve">
<style type="text/css">
	.st0{fill:#010202;}
	.st1{fill:#020304;}
	.st2{fill:#FFFFFF;}
	.st3{fill:none;}
	.st4{opacity:0.6;fill:#020304;enable-background:new    ;}
	.st5{opacity:0.5;fill:#020304;enable-background:new    ;}
	.st6{enable-background:new    ;}
	.st7{opacity:0.85;clip-path:url(#SVGID_2_);fill:#010202;enable-background:new    ;}
	.st8{clip-path:url(#SVGID_4_);fill:#010202;}
	.st9{clip-path:url(#SVGID_6_);fill:#010202;}
	.st10{clip-path:url(#SVGID_8_);fill:#010202;}
	.st11{clip-path:url(#SVGID_10_);fill:none;stroke:#FFFFFF;stroke-width:5.8537;stroke-miterlimit:10;}
	.st12{clip-path:url(#SVGID_12_);fill:#010202;}
	.st13{clip-path:url(#SVGID_16_);}
	.st14{clip-path:url(#SVGID_17_);}
	.st15{clip-path:url(#SVGID_18_);}
	.st16{fill:none;stroke:#D21427;stroke-width:0;stroke-linecap:round;stroke-linejoin:round;}
	.st17{fill:#231F20;}
</style>
<g>
	<path class="st0" d="M107.178,18.556c0,0,1.315-6.054,1.341-6.106h-8.384l-1.732,8.072h2.148c0.013,0,1.315-6.028,1.315-6.028
		h4.075c0,0-1.276,6.054-1.315,6.093h6.197l-0.807,3.737h-6.158c0,0.039-1.25,5.689-1.25,5.689h-4.661
		c0,0.013-0.417,2.031-0.43,2.057h6.861c0-0.013,1.224-5.716,1.224-5.716h6.158c0-0.013,1.627-7.747,1.627-7.786L107.178,18.556
		L107.178,18.556z M4.025,21.772l0.885-4.166h1.133c1.25,0,1.849,0.508,1.849,1.693c0,1.523-0.963,2.474-2.734,2.474H4.025z
		 M3.556,24.089h1.185c3.789,0,5.898-1.862,5.898-4.973c0-2.317-1.64-3.828-4.453-3.828H2.684L0.002,27.956H2.71L3.556,24.089
		L3.556,24.089z M14.922,26.068c-1.081,0-1.927-0.846-1.523-2.786c0.391-1.94,1.341-2.786,2.409-2.786
		c1.081,0,1.927,0.872,1.51,2.786C16.914,25.209,15.99,26.068,14.922,26.068z M14.675,28.242c2.955,0,4.96-2.148,5.403-4.96
		c0.469-2.812-1.094-4.96-4.049-4.96s-4.96,2.148-5.403,4.96C10.157,26.094,11.72,28.242,14.675,28.242z M24.817,25.209
		c0,0.755-0.924,0.885-1.693,0.885c-0.976,0-2.07-0.26-2.656-0.456l-0.456,2.109c0.846,0.208,1.927,0.378,2.942,0.378
		c2.409,0,4.375-0.898,4.375-3.164c0-2.916-3.502-2.409-3.502-3.711c0-0.586,0.56-0.794,1.445-0.794
		c0.846,0,2.031,0.339,2.435,0.456l0.456-2.135c-0.807-0.221-1.771-0.352-2.643-0.352c-2.617,0-4.205,1.172-4.205,3.112
		C21.315,24.375,24.817,23.907,24.817,25.209z M35.024,20.665l0.43-2.057h-2.877l0.56-2.604l-2.812,0.625l-1.745,7.994
		c-0.495,2.265,0.755,3.502,3.02,3.502c0.469,0,1.263-0.091,1.823-0.286l0.456-2.057c-0.456,0.117-1.016,0.221-1.51,0.221
		c-0.768,0-1.315-0.26-1.133-1.211l0.885-4.14C32.121,20.665,35.024,20.665,35.024,20.665z M37.68,27.956l1.055-4.882h4.075
		l0.495-2.396h-4.049l0.625-2.994h4.283l0.534-2.396h-7.07l-2.682,12.668H37.68L37.68,27.956z M45.297,18.608l-2.018,9.348h2.682
		l2.018-9.348H45.297z M45.674,16.03c-0.052,0.846,0.56,1.51,1.393,1.51c0.924,0,1.588-0.664,1.64-1.51
		c0.052-0.846-0.56-1.51-1.393-1.51C46.39,14.52,45.739,15.184,45.674,16.03z M50.504,27.956l1.042-4.765
		c0.417-1.927,1.354-2.578,2.343-2.578c1.263,0,1.419,0.937,1.172,2.018l-1.133,5.338h2.695l1.185-5.468
		c0.586-2.734-0.677-4.166-2.656-4.166c-1.094,0-2.148,0.43-3.06,1.393l0.247-1.107h-2.5l-2.018,9.348h2.682V27.956z M63.563,18.387
		c-1.25,0-2.513,0.286-2.916,0.417l-0.456,2.161c0.599-0.169,1.784-0.495,2.851-0.495c1.419,0,1.927,0.43,1.927,1.172
		c0,0.13,0,0.286-0.039,0.43l-0.039,0.195c-0.677-0.078-1.315-0.13-1.627-0.13c-2.682,0-4.817,1.042-4.817,3.489
		c0,1.601,1.25,2.565,2.864,2.565c1.146,0,2.135-0.456,2.773-1.211l-0.208,0.976h2.396l1.172-5.351
		c0.091-0.391,0.13-0.807,0.13-1.211C67.56,19.793,66.674,18.387,63.563,18.387L63.563,18.387z M60.959,25.261
		c0-0.937,0.833-1.471,2.2-1.471c0.26,0,0.846,0.013,1.38,0.091l-0.117,0.534c-0.325,1.107-1.224,1.862-2.304,1.862
		C61.349,26.276,60.959,25.899,60.959,25.261z M70.645,27.956l1.042-4.765c0.417-1.927,1.354-2.578,2.343-2.578
		c1.263,0,1.419,0.937,1.172,2.018l-1.133,5.338h2.682l1.185-5.468c0.586-2.734-0.677-4.166-2.656-4.166
		c-1.094,0-2.148,0.43-3.06,1.393l0.247-1.107h-2.513l-2.018,9.348h2.708V27.956z M83.665,25.938c-1.224,0-2.057-0.534-2.057-2.057
		c0-1.797,1.133-3.281,2.916-3.281c0.56,0,1.211,0.169,1.849,0.417l0.456-2.148c-0.729-0.26-1.601-0.456-2.474-0.456
		c-2.955,0-5.481,2.2-5.481,5.598c0,2.786,1.719,4.114,4.179,4.114c0.833,0,1.523-0.156,2.031-0.352l0.495-2.2
		C85.032,25.769,84.407,25.938,83.665,25.938L83.665,25.938z M93.898,27.852l0.495-2.239c-0.833,0.286-1.64,0.508-2.669,0.508
		c-1.211,0-2.265-0.417-2.317-1.862h6.223c0.221-0.729,0.352-1.471,0.352-2.148c0-2.07-1.211-3.776-3.789-3.776
		c-3.359,0-5.39,2.747-5.39,5.781c0,2.604,1.732,4.127,4.427,4.127C92.323,28.242,93.182,28.073,93.898,27.852z M91.997,20.339
		c0.885,0,1.484,0.599,1.484,1.601c0,0.169-0.013,0.325-0.039,0.495h-3.828C90.018,21.173,90.864,20.339,91.997,20.339z"/>
</g>
</svg>
