<?xml version="1.0" standalone="no"?>
<!DOCTYPE svg PUBLIC "-//W3C//DTD SVG 20010904//EN"
 "http://www.w3.org/TR/2001/REC-SVG-20010904/DTD/svg10.dtd">
<svg version="1.0" xmlns="http://www.w3.org/2000/svg"
 width="1433.000000pt" height="1433.000000pt" viewBox="0 0 1433.000000 1433.000000"
 preserveAspectRatio="xMidYMid meet">
<metadata>
Created by potrace 1.14, written by Peter Selinger 2001-2017
</metadata>
<g transform="translate(0.000000,1433.000000) scale(0.100000,-0.100000)"
fill="#000000" stroke="none">
<path d="M6850 14310 c-202 -42 -366 -123 -506 -251 -173 -157 -277 -343 -330
-589 -3 -14 -7 -76 -10 -139 -8 -183 27 -346 109 -506 60 -116 113 -185 245
-319 118 -119 1648 -1639 2785 -2768 l612 -607 -557 -553 c-546 -542 -2328
-2313 -2703 -2685 -229 -228 -270 -274 -328 -361 -72 -109 -138 -279 -154
-396 -16 -115 -9 -297 16 -406 28 -125 121 -321 178 -378 7 -7 13 -17 13 -21
0 -4 35 -42 78 -85 170 -169 348 -260 590 -303 49 -9 254 -9 317 0 48 7 107
22 190 48 66 21 217 103 282 153 68 51 128 110 1643 1616 584 580 1240 1232
1458 1448 1350 1337 1332 1318 1416 1510 58 134 78 228 82 382 6 238 -45 415
-171 606 -56 84 -199 229 -1465 1484 -241 239 -884 878 -1430 1420 -1455 1446
-1476 1466 -1533 1508 -139 102 -273 160 -452 197 -73 15 -291 12 -375 -5z"/>
<path d="M7158 10395 c-2 -2 -24 -6 -50 -9 -143 -19 -323 -96 -456 -196 -44
-32 -384 -361 -796 -771 -395 -393 -881 -876 -1081 -1074 -1287 -1277 -2423
-2406 -2456 -2440 -256 -270 -346 -679 -226 -1030 60 -176 130 -283 291 -445
96 -98 1620 -1612 2591 -2575 233 -231 692 -687 1019 -1012 368 -366 624 -612
669 -644 121 -87 290 -158 437 -184 75 -14 278 -13 351 1 299 56 529 205 693
449 83 122 111 191 166 403 10 38 6 305 -5 367 -12 69 -65 214 -104 286 -66
123 -121 187 -391 457 -347 345 -2058 2045 -2723 2704 l-521 517 407 403 c380
377 2133 2118 2796 2778 319 317 365 371 434 501 155 291 159 639 11 937 -150
300 -427 506 -764 567 -62 11 -283 18 -292 10z"/>
</g>
</svg>
